<?xml version="1.0" encoding="utf-8"?>
<!-- Generator: Adobe Illustrator 23.0.5, SVG Export Plug-In . SVG Version: 6.00 Build 0)  -->
<svg version="1.1" id="Capa_1" xmlns="http://www.w3.org/2000/svg" xmlns:xlink="http://www.w3.org/1999/xlink" x="0px" y="0px"
	 viewBox="0 0 500 500" style="enable-background:new 0 0 500 500;" xml:space="preserve">
<style type="text/css">
	.st0{clip-path:url(#SVGID_2_);fill:#21B865;}
	.st1{clip-path:url(#SVGID_2_);fill:#FFFFFF;}
	.st2{fill:#FFFFFF;}
	.st3{font-family:'Roboto-Regular';}
	.st4{font-size:7px;}
	.st5{clip-path:url(#SVGID_4_);fill:#21B865;}
	.st6{clip-path:url(#SVGID_4_);fill:#FFFFFF;}
</style>
<g>
	<defs>
		<rect id="SVGID_1_" width="500" height="500"/>
	</defs>
	<clipPath id="SVGID_2_">
		<use xlink:href="#SVGID_1_"  style="overflow:visible;"/>
	</clipPath>
	<path class="st0" d="M315,158.5c0,1.4-1.1,2.5-2.5,2.5c-1.4,0-2.5-1.1-2.5-2.5c0-1.4,1.1-2.5,2.5-2.5
		C313.9,156,315,157.1,315,158.5"/>
	<path class="st0" d="M320,230.5c0,1.4-1.1,2.5-2.5,2.5c-1.4,0-2.5-1.1-2.5-2.5c0-1.4,1.1-2.5,2.5-2.5
		C318.9,228,320,229.1,320,230.5"/>
	<path class="st0" d="M285,306.5c0,1.4-1.1,2.5-2.5,2.5c-1.4,0-2.5-1.1-2.5-2.5c0-1.4,1.1-2.5,2.5-2.5
		C283.9,304,285,305.1,285,306.5"/>
	<path class="st0" d="M282,300.5c0,1.4-1.1,2.5-2.5,2.5c-1.4,0-2.5-1.1-2.5-2.5c0-1.4,1.1-2.5,2.5-2.5
		C280.9,298,282,299.1,282,300.5"/>
	<path class="st0" d="M248,308.5c0,1.4-1.1,2.5-2.5,2.5c-1.4,0-2.5-1.1-2.5-2.5c0-1.4,1.1-2.5,2.5-2.5
		C246.9,306,248,307.1,248,308.5"/>
	<path class="st0" d="M212,317.5c0,1.4-1.1,2.5-2.5,2.5c-1.4,0-2.5-1.1-2.5-2.5c0-1.4,1.1-2.5,2.5-2.5
		C210.9,315,212,316.1,212,317.5"/>
	<path class="st0" d="M174,342.5c0,1.4-1.1,2.5-2.5,2.5c-1.4,0-2.5-1.1-2.5-2.5c0-1.4,1.1-2.5,2.5-2.5
		C172.9,340,174,341.1,174,342.5"/>
	<path class="st0" d="M204,314.5c0,1.4-1.1,2.5-2.5,2.5c-1.4,0-2.5-1.1-2.5-2.5c0-1.4,1.1-2.5,2.5-2.5
		C202.9,312,204,313.1,204,314.5"/>
	<path class="st0" d="M162,354.5c0,1.4-1.1,2.5-2.5,2.5c-1.4,0-2.5-1.1-2.5-2.5c0-1.4,1.1-2.5,2.5-2.5
		C160.9,352,162,353.1,162,354.5"/>
	<path class="st0" d="M156,337.5c0,1.4-1.1,2.5-2.5,2.5c-1.4,0-2.5-1.1-2.5-2.5c0-1.4,1.1-2.5,2.5-2.5
		C154.9,335,156,336.1,156,337.5"/>
	<path class="st0" d="M278,284.5c0,1.4-1.1,2.5-2.5,2.5c-1.4,0-2.5-1.1-2.5-2.5c0-1.4,1.1-2.5,2.5-2.5
		C276.9,282,278,283.1,278,284.5"/>
	<path class="st0" d="M309.7,157.2c-4.5-3.4-9.5-6-14.8-7.9c-5.9-2.1-12-3.1-18.3-3.1c-1.1,0-2.3,0-3.5,0.1l0-0.7
		c1.2-0.1,2.4-0.1,3.5-0.1c6.3,0,12.5,1.1,18.5,3.1c5.4,1.9,10.4,4.6,15,8L309.7,157.2z"/>
	<path class="st1" d="M276.6,145.6L276.6,145.6c6.3,0,12.5,1.1,18.5,3.1c5.3,1.9,10.3,4.5,14.9,7.9l-0.3,0.4
		c-4.5-3.3-9.5-6-14.7-7.8c-5.9-2.1-12-3.1-18.3-3.1c-1.1,0-2.2,0-3.4,0.1l0-0.5C274.4,145.7,275.5,145.6,276.6,145.6 M276.6,145.4
		c-1.2,0-2.4,0-3.7,0.1l0.1,1c1.2-0.1,2.4-0.1,3.6-0.1c6.2,0,12.3,1,18.2,3.1c5.3,1.9,10.3,4.5,14.9,7.9l0.6-0.8
		c-4.6-3.5-9.7-6.2-15.1-8.1C289.2,146.4,283,145.4,276.6,145.4"/>
	<path class="st0" d="M311.1,330c-2.6,0-5.2-0.4-7.7-1.2c-13.8-4.4-17.8-18.6-18.2-20.1l0.7-0.2c0.4,1.5,4.3,15.4,17.7,19.6
		c2.4,0.8,4.9,1.2,7.5,1.2c5.3,0,9.5-1.6,11.6-2.6l0.3,0.7C320.9,328.4,316.5,330,311.1,330"/>
	<path class="st1" d="M285.8,308.7c0.6,2,4.6,15.4,17.8,19.6c2.4,0.8,5,1.2,7.5,1.2c5.2,0,9.4-1.5,11.5-2.5l0.2,0.5
		c-2.2,1-6.5,2.6-11.8,2.6c-2.6,0-5.2-0.4-7.7-1.2c-13.4-4.3-17.6-17.9-18.1-19.9L285.8,308.7 M286,308.4l-1,0.2
		c0.2,0.6,4,15.8,18.3,20.4c2.7,0.9,5.4,1.2,7.8,1.2c5.6,0,10-1.7,12.1-2.7l-0.4-0.9c-2,0.9-6.3,2.6-11.7,2.6
		c-2.3,0-4.9-0.3-7.5-1.1C289.8,323.6,286.1,309,286,308.4"/>
</g>
<text transform="matrix(1 0 0 1 223.6665 147.771)"><tspan x="0" y="0" class="st2 st3 st4">Sappo</tspan><tspan x="19.8" y="0" class="st2 st3 st4">r</tspan><tspan x="22.1" y="0" class="st2 st3 st4">o Dome</tspan></text>
<text transform="matrix(1 0 0 1 348.9248 232.772)"><tspan x="0" y="0" class="st2 st3 st4">Kamaishi Rec</tspan><tspan x="42.4" y="0" class="st2 st3 st4">o</tspan><tspan x="46.4" y="0" class="st2 st3 st4">v</tspan><tspan x="49.7" y="0" class="st2 st3 st4">e</tspan><tspan x="53.4" y="0" class="st2 st3 st4">r</tspan><tspan x="55.8" y="0" class="st2 st3 st4">y</tspan></text>
<text transform="matrix(1 0 0 1 348.9248 241.1719)" class="st2 st3 st4">Memorial Stadium</text>
<text transform="matrix(1 0 0 1 315.9268 306.7686)"><tspan x="0" y="0" class="st2 st3 st4">T</tspan><tspan x="3.8" y="0" class="st2 st3 st4">okio Stadium</tspan></text>
<text transform="matrix(1 0 0 1 249.0625 216.77)"><tspan x="0" y="0" class="st2 st3 st4">K</tspan><tspan x="4.3" y="0" class="st2 st3 st4">umag</tspan><tspan x="22" y="0" class="st2 st3 st4">a</tspan><tspan x="25.8" y="0" class="st2 st3 st4">y</tspan><tspan x="29.1" y="0" class="st2 st3 st4">a</tspan></text>
<text transform="matrix(1 0 0 1 235.0063 225.1699)"><tspan x="0" y="0" class="st2 st3 st4">Rug</tspan><tspan x="12.1" y="0" class="st2 st3 st4">b</tspan><tspan x="16" y="0" class="st2 st3 st4">y Stadium</tspan></text>
<text transform="matrix(1 0 0 1 205.4595 245.771)"><tspan x="0" y="0" class="st2 st3 st4">City of</tspan><tspan x="20" y="0" class="st2 st3 st4"> </tspan><tspan x="21.6" y="0" class="st2 st3 st4">T</tspan><tspan x="25.4" y="0" class="st2 st3 st4">oy</tspan><tspan x="32.7" y="0" class="st2 st3 st4">ota </tspan></text>
<text transform="matrix(1 0 0 1 224.0376 254.1709)" class="st2 st3 st4">Stadium</text>
<text transform="matrix(1 0 0 1 122.0615 290.7744)"><tspan x="0" y="0" class="st2 st3 st4">K</tspan><tspan x="4.3" y="0" class="st2 st3 st4">obe Misaki </tspan></text>
<text transform="matrix(1 0 0 1 136.0405 299.1738)" class="st2 st3 st4">Stadium</text>
<text transform="matrix(1 0 0 1 257.9316 346.7744)" class="st2 st3 st4">Shizuoka</text>
<text transform="matrix(1 0 0 1 257.9316 355.1738)" class="st2 st3 st4">Stadium</text>
<text transform="matrix(1 0 0 1 198.9287 356.7773)"><tspan x="0" y="0" class="st2 st3 st4">Hana</tspan><tspan x="16.5" y="0" class="st2 st3 st4">z</tspan><tspan x="19.9" y="0" class="st2 st3 st4">ono</tspan></text>
<text transform="matrix(1 0 0 1 198.9287 365.1768)"><tspan x="0" y="0" class="st2 st3 st4">Rug</tspan><tspan x="12.1" y="0" class="st2 st3 st4">b</tspan><tspan x="16" y="0" class="st2 st3 st4">y</tspan></text>
<text transform="matrix(1 0 0 1 198.9287 373.5771)" class="st2 st3 st4">Stadium</text>
<text transform="matrix(1 0 0 1 94.5234 330.7793)"><tspan x="0" y="0" class="st2 st3 st4">F</tspan><tspan x="3.8" y="0" class="st2 st3 st4">ukuoka</tspan></text>
<text transform="matrix(1 0 0 1 76.6313 339.1787)" class="st2 st3 st4">Hakatanomori</text>
<text transform="matrix(1 0 0 1 95.0415 347.5791)" class="st2 st3 st4">Stadium</text>
<text transform="matrix(1 0 0 1 168.9268 387.7803)" class="st2 st3 st4">Oita Stadium</text>
<text transform="matrix(1 0 0 1 104.4775 376.7832)"><tspan x="0" y="0" class="st2 st3 st4">K</tspan><tspan x="4.3" y="0" class="st2 st3 st4">umamo</tspan><tspan x="28.2" y="0" class="st2 st3 st4">t</tspan><tspan x="30.5" y="0" class="st2 st3 st4">o</tspan></text>
<text transform="matrix(1 0 0 1 113.0386 385.1826)" class="st2 st3 st4">Stadium</text>
<text transform="matrix(1 0 0 1 328.9258 327.7832)" class="st2 st3 st4">International </text>
<text transform="matrix(1 0 0 1 328.9258 336.1826)"><tspan x="0" y="0" class="st2 st3 st4">Stadium </tspan><tspan x="27.6" y="0" class="st2 st3 st4">Y</tspan><tspan x="31.6" y="0" class="st2 st3 st4">okohoama</tspan></text>
<g>
	<defs>
		<rect id="SVGID_3_" width="500" height="500"/>
	</defs>
	<clipPath id="SVGID_4_">
		<use xlink:href="#SVGID_3_"  style="overflow:visible;"/>
	</clipPath>
	<rect x="320.6" y="230.1" class="st5" width="26.8" height="0.8"/>
	<path class="st6" d="M347.3,230.8h-26.5v-0.5h26.5V230.8z M347.5,230h-27v1h27V230z"/>
	<rect x="286.1" y="303.1" class="st5" width="29.8" height="0.8"/>
	<path class="st6" d="M315.8,303.8h-29.5v-0.5h29.5V303.8z M316,303h-30v1h30V303z"/>
	<rect x="123.1" y="337.2" class="st5" width="27.8" height="0.7"/>
	<path class="st6" d="M150.8,337.7h-27.5v-0.4h27.5V337.7z M151,337h-28v0.9h28V337z"/>
	<rect x="274.6" y="224.6" class="st5" width="0.8" height="55.3"/>
	<path class="st6" d="M275.3,279.8h-0.5v-55h0.5V279.8z M275.5,224.5h-1V280h1V224.5z"/>
	<rect x="260.1" y="311.6" class="st5" width="0.8" height="27.8"/>
	<path class="st6" d="M260.8,339.3h-0.5v-27.5h0.5V339.3z M261,311.5h-1v28h1V311.5z"/>
	<rect x="171.1" y="346.1" class="st5" width="0.8" height="35.3"/>
	<path class="st6" d="M171.8,381.3h-0.5v-35h0.5V381.3z M172,346h-1v35.5h1V346z"/>
	<rect x="245.1" y="256.6" class="st5" width="0.8" height="46.8"/>
	<path class="st6" d="M245.8,303.3h-0.5v-46.5h0.5V303.3z M246,256.5h-1v47h1V256.5z"/>
	<path class="st5" d="M135.2,372.3c1.2-3.8,3.3-7.2,6-10c5.1-5.3,11.3-7,14.6-7.6l0.1,0.7c-3.2,0.5-9.2,2.2-14.2,7.4
		c-2.6,2.7-4.7,6.1-5.9,9.7L135.2,372.3z"/>
	<path class="st6" d="M155.7,354.8l0.1,0.5c-3.2,0.6-9.2,2.3-14.1,7.4c-2.6,2.7-4.6,6-5.9,9.7l-0.5-0.2c1.2-3.7,3.3-7.1,6-9.9
		C146.4,357.1,152.4,355.4,155.7,354.8 M155.9,354.5c-3.3,0.5-9.5,2.3-14.8,7.6c-2.8,2.8-4.9,6.4-6.1,10.2l1,0.3
		c1.2-3.7,3.2-7.1,5.9-9.8c5-5.2,11.1-6.8,14.2-7.4L155.9,354.5z"/>
	<path class="st5" d="M263,311.5c0,1.4-1.1,2.5-2.5,2.5c-1.4,0-2.5-1.1-2.5-2.5c0-1.4,1.1-2.5,2.5-2.5
		C261.9,309,263,310.1,263,311.5"/>
	<path class="st5" d="M198.1,310.6c-1.6-3.3-4.6-7.8-9.8-11.2c-4.7-3.1-10.1-4.7-16.1-4.7c-3.9,0-6.9,0.7-8.5,1.1l-0.2-0.7
		c1.6-0.4,4.8-1.1,8.7-1.1c6.2,0,11.7,1.6,16.5,4.8c5.3,3.5,8.4,8.2,10.1,11.5L198.1,310.6z"/>
	<path class="st6" d="M172.2,293.8v0.3c6.1,0,11.6,1.6,16.4,4.8c5.3,3.5,8.3,8.1,10,11.4l-0.4,0.2c-1.6-3.3-4.6-7.8-9.8-11.2
		c-4.7-3.1-10.1-4.7-16.1-4.7c-3.8,0-6.8,0.6-8.4,1.1l-0.1-0.5c1.6-0.4,4.7-1.1,8.6-1.1V293.8 M172.2,293.8c-4.1,0-7.3,0.7-8.9,1.1
		l0.3,1c1.5-0.4,4.6-1.1,8.6-1.1c4.7,0,10.5,1,16,4.6c5.2,3.5,8.2,8.1,9.8,11.3l0.9-0.4c-1.6-3.4-4.8-8.1-10.2-11.7
		C183.1,294.8,177.1,293.8,172.2,293.8"/>
	<rect x="209.1" y="321.1" class="st5" width="0.8" height="27.8"/>
	<path class="st6" d="M209.8,348.8h-0.5v-27.5h0.5V348.8z M210,321h-1v28h1V321z"/>
</g>
</svg>
